<?xml version="1.0" encoding="utf-8"?>
<svg width="500px" height="500px" viewBox="0 0 500 500" version="1.1" xmlns:xlink="http://www.w3.org/1999/xlink" xmlns="http://www.w3.org/2000/svg">
  <defs>
    <path d="M254.469 8.94251L444.303 388.61Q444.387 388.777 444.458 388.95Q444.529 389.123 444.587 389.301Q444.644 389.479 444.689 389.661Q444.733 389.843 444.764 390.027Q444.794 390.212 444.811 390.398Q444.828 390.584 444.831 390.771Q444.833 390.958 444.822 391.145Q444.811 391.332 444.786 391.517Q444.761 391.702 444.722 391.885Q444.683 392.068 444.631 392.248Q444.578 392.427 444.512 392.602Q444.447 392.777 444.368 392.947Q444.289 393.117 444.198 393.28Q444.107 393.443 444.004 393.599Q443.901 393.756 443.787 393.903Q443.672 394.051 443.547 394.19Q443.422 394.329 443.287 394.459Q443.152 394.588 443.007 394.707Q442.863 394.826 442.71 394.933Q442.557 395.041 442.397 395.137Q442.236 395.233 442.069 395.316Q441.902 395.4 441.729 395.471Q441.555 395.542 441.378 395.6Q441.2 395.658 441.018 395.702Q440.836 395.746 440.652 395.777Q440.467 395.808 440.281 395.824Q440.095 395.841 439.908 395.844Q439.721 395.847 439.534 395.836Q439.348 395.825 439.162 395.8Q438.977 395.775 438.794 395.736Q438.611 395.697 438.431 395.644Q438.252 395.592 438.077 395.526L251.753 325.655Q251.332 325.497 250.89 325.417Q250.447 325.337 249.998 325.337Q249.548 325.337 249.106 325.417Q248.663 325.497 248.242 325.655L61.9196 395.526Q61.7445 395.592 61.565 395.645Q61.3854 395.697 61.2025 395.736Q61.0196 395.775 60.8342 395.8Q60.6489 395.825 60.4622 395.836Q60.2755 395.847 60.0885 395.844Q59.9015 395.841 59.7153 395.825Q59.529 395.808 59.3445 395.777Q59.16 395.746 58.9783 395.702Q58.7967 395.658 58.6188 395.6Q58.4409 395.542 58.2679 395.471Q58.0949 395.4 57.9276 395.316Q57.7604 395.233 57.5998 395.137Q57.4393 395.041 57.2864 394.933Q57.1335 394.826 56.989 394.707Q56.8446 394.588 56.7094 394.459Q56.5742 394.329 56.4491 394.19Q56.324 394.051 56.2096 393.903Q56.0952 393.756 55.9922 393.599Q55.8891 393.443 55.7981 393.28Q55.707 393.117 55.6284 392.947Q55.5498 392.777 55.4841 392.602Q55.4184 392.427 55.3659 392.248Q55.3135 392.068 55.2746 391.885Q55.2357 391.702 55.2106 391.517Q55.1855 391.332 55.1743 391.145Q55.1631 390.958 55.1659 390.771Q55.1687 390.584 55.1855 390.398Q55.2022 390.212 55.2328 390.027Q55.2635 389.843 55.3078 389.661Q55.3521 389.479 55.4099 389.301Q55.4677 389.123 55.5386 388.95Q55.6095 388.777 55.6931 388.61L245.527 8.94251Q245.604 8.78775 245.692 8.63871Q245.78 8.48967 245.878 8.34707Q245.976 8.20446 246.084 8.06898Q246.191 7.93349 246.308 7.80576Q246.425 7.67804 246.55 7.55869Q246.675 7.43934 246.808 7.32894Q246.942 7.21854 247.082 7.11762Q247.223 7.0167 247.37 6.92573Q247.517 6.83476 247.67 6.75419Q247.823 6.67362 247.982 6.60383Q248.14 6.53404 248.303 6.47536Q248.466 6.41669 248.632 6.3694Q248.798 6.32212 248.968 6.28646Q249.137 6.2508 249.308 6.22693Q249.48 6.20306 249.652 6.1911Q249.825 6.17913 249.998 6.17913Q250.171 6.17913 250.344 6.1911Q250.516 6.20306 250.688 6.22693Q250.859 6.2508 251.028 6.28646Q251.198 6.32212 251.364 6.3694Q251.531 6.41668 251.693 6.47536Q251.856 6.53404 252.014 6.60383Q252.173 6.67362 252.326 6.75419Q252.479 6.83476 252.626 6.92573Q252.773 7.01669 252.914 7.11762Q253.054 7.21854 253.188 7.32894Q253.321 7.43934 253.446 7.55869Q253.571 7.67804 253.688 7.80576Q253.805 7.93349 253.913 8.06897Q254.02 8.20446 254.118 8.34707Q254.216 8.48967 254.304 8.63871Q254.392 8.78775 254.469 8.94251L254.469 8.94251Z" id="path_1" />
    <rect width="500" height="500" id="artboard_1" />
    <clipPath id="clip_1">
      <use xlink:href="#artboard_1" clip-rule="evenodd" />
    </clipPath>
    <clipPath id="clip_2">
      <use xlink:href="#path_1" />
    </clipPath>
  </defs>
  <g id="Player" clip-path="url(#clip_1)">
    <g id="Triangle" artboard="2c0e07ff-3ee7-4f76-a66b-d4682827f5c2">
      <use stroke="none" fill="#673838" xlink:href="#path_1" fill-rule="evenodd" />
      <g clip-path="url(#clip_2)">
        <use xlink:href="#path_1" fill="none" stroke="#FFFFFF" stroke-width="72" stroke-linecap="round" stroke-linejoin="round" />
      </g>
    </g>
  </g>
</svg>